<svg xmlns="http://www.w3.org/2000/svg" viewBox="0 0 695.33 281"><defs><style>.cls-1{fill:#fff;}.cls-2{fill:none;stroke:#fff;stroke-linecap:round;stroke-miterlimit:10;stroke-width:8px;}</style></defs><g id="Layer_2" data-name="Layer 2"><g id="Layer_1-2" data-name="Layer 1"><path class="cls-1" d="M198.47,81.68a16.79,16.79,0,0,1,33.57,0q-.94,57.82-1,116.32v12a17.12,17.12,0,0,1-32,0l-.57-9.56q-9.83,9.28-19.72,13.37a55.61,55.61,0,0,1-21.43,4.09q-25.92,0-44.84-20T93.56,148.32q0-30.75,18.31-50.41t44.46-19.65a57,57,0,0,1,22.61,4.52,61.58,61.58,0,0,1,19.53,13.55ZM163.17,109q-15.55,0-25.86,10.92T127,148q0,17.21,10.48,28.32a34.1,34.1,0,0,0,25.81,11.1q15.81,0,26.23-10.92t10.41-28.62q0-17.34-10.41-28.08T163.17,109Z"/><path class="cls-1" d="M296.17,79.06v15.1a64.66,64.66,0,0,1,20.14-14,58.08,58.08,0,0,1,23.16-4.66q26.82,0,45.57,20.27t18.76,52q0,30.59-19.39,51.17t-45.94,20.59a57.07,57.07,0,0,1-22-4.22q-10.2-4.22-20.27-13.79v64.58a17.22,17.22,0,0,1-34.12,0V79.06a17.46,17.46,0,0,1,34.12,0Zm36.13,28.2q-16.24,0-26.94,11.07t-10.7,29q0,18.26,10.7,29.52t26.94,11.26a34.92,34.92,0,0,0,26.5-11.45q10.76-11.46,10.76-29.21T359,118.52Q348.42,107.26,332.3,107.26Z"/><path class="cls-1" d="M521.1,12.64a18,18,0,0,1,34.37,0V64.55h20.39c8.72,1.62,14.35,9.85,13.18,17.67A15.66,15.66,0,0,1,575.86,95H555.47V205.41c-1.21,8.62-8.15,15.14-16.28,15.57-8.75.47-16.75-6.25-18.09-15.57V95H503.48a15.66,15.66,0,0,1-12.41-13.64,15.89,15.89,0,0,1,12.41-16.79H521.1Z"/><path class="cls-1" d="M30.1,12.64A18.43,18.43,0,0,1,48.19,0,18.45,18.45,0,0,1,64.47,12.64V64.55H84.86C93.58,66.17,99.21,74.4,98,82.22A15.66,15.66,0,0,1,84.86,95H64.47V205.41C63.26,214,56.32,220.55,48.19,221c-8.75.47-16.75-6.25-18.09-15.57V95H12.48A15.66,15.66,0,0,1,.07,81.34,15.89,15.89,0,0,1,12.48,64.55H30.1Z"/><path class="cls-1" d="M627.25,12.64a18,18,0,0,1,34.36,0V64.55H682c8.71,1.62,14.34,9.85,13.17,17.67A15.66,15.66,0,0,1,682,95h-20.4V205.41c-1.21,8.62-8.15,15.14-16.28,15.57-8.75.47-16.75-6.25-18.08-15.57V95H609.62a15.66,15.66,0,0,1-12.41-13.64,15.89,15.89,0,0,1,12.41-16.79h17.63Z"/><path class="cls-1" d="M445.83,65a18.89,18.89,0,0,0-13.31,5.28,17.25,17.25,0,0,0-4,6.09V205.85c.92,9,9.19,15.63,18.22,15.13a17.14,17.14,0,0,0,16.15-15.13V76.39A18.36,18.36,0,0,0,445.83,65Z"/><path class="cls-2" d="M420,59c.88-1.19,10-13.17,26-13,16.31.18,25.23,12.86,26,14"/><path class="cls-2" d="M407,44c1.38-1.72,15.93-19.31,40-18,23.18,1.27,35.63,19,37,21"/><path class="cls-2" d="M395,28c2.29-2.84,19.6-23.66,49-24,31.81-.36,50.18,23.55,52,26"/></g></g></svg>