<svg xmlns="http://www.w3.org/2000/svg" viewBox="0 0 426.25 416.92"><defs><style>.cls-1{fill:#519943;}</style></defs><g id="Layer_2" data-name="Layer 2"><g id="Layer_1-2" data-name="Layer 1"><path class="cls-1" d="M161.89,284.29a2.64,2.64,0,0,1-.38-3.19,2.72,2.72,0,0,1,2.15-1.11,108.94,108.94,0,0,0,27.47-1.06c10.28-1.72,17-2.92,22.34-7.91,7.33-6.81,8.12-16.84,8.65-23.48,1.61-20.21,3.49-42.31,5.39-67.42a6.85,6.85,0,0,1,13.28-1l5.61,65c.14,5.67,1.29,21.39,12.9,35,13.36,15.65,35.34,22.33,57.19,17.87a2.36,2.36,0,0,1,2,4c-26.22,11.22-45.66,19-51,20.66a24.17,24.17,0,0,1-14.81,0Z"/><path class="cls-1" d="M8.7,330.59l70.47-42.21a31.53,31.53,0,0,1,27.93-1l134,48.46c6.47,5.48,9.54,13.82,7.76,21.49-2.31,10-12.48,17.35-24.12,16.49-25.49-6.17-87.91-21.16-92.6-21.11-.49,0-1.9,0-2.38.85-.65,1.14.84,3.19,1.87,4.43l95,22.81c9,1,14.35-2,16.34-3.24,9.78-6.26,15.23-21.59,11.92-30.13-.55-1.41-2.27-5-.68-7.66a5.93,5.93,0,0,1,3.4-2.38c4.75-1.5,52.18-19.63,118.13-44.94a15.86,15.86,0,0,1,9.87,28.6L256.7,400.89a60.1,60.1,0,0,1-20.6,10,61.36,61.36,0,0,1-33.53-.68l-89-21.44a13.64,13.64,0,0,0-7.7-1.13,14.2,14.2,0,0,0-7.28,3.85C94,395.64,85.1,402.19,71.68,411.46c-1.45,1.16-8.52,6.56-18,5.26a22.74,22.74,0,0,1-10.39-4.26A141,141,0,0,1,.73,350.22,17.29,17.29,0,0,1,1.89,337.4,16.82,16.82,0,0,1,8.7,330.59Z"/><path class="cls-1" d="M106.38,151a1.06,1.06,0,0,1,.84-1.56c49.72-4.31,88.13,1.35,100.76,14.31,9.31,9.57,9.7,18.9,9.7,18.9.31,7.53-3.28,13.5-5.6,16.62a1,1,0,0,1-.33.3,1.38,1.38,0,0,1-1.16-.12,73.3,73.3,0,0,0-25.69-17.59,128.25,128.25,0,0,0-17.25-5.27s.08,0,.11.06c19.86,10.07,25,15.6,26.81,17.61a50.47,50.47,0,0,1,7.31,10.88,1,1,0,0,1-.54,1.43A50.53,50.53,0,0,1,186,210.38C144.15,213.74,112.11,161.1,106.38,151Z"/><path class="cls-1" d="M88.19,2.19a1.84,1.84,0,0,1,2-2.15C163,16.69,214.26,44.19,225,71.33c7.94,20,3.38,35.41,3.38,35.41-3.68,12.41-12,20.44-17,24.42a1.69,1.69,0,0,1-.63.32,1.83,1.83,0,0,1-1.59-.73c-8.54-21.71-19.63-34.25-26.72-40.9A177.06,177.06,0,0,0,160.9,73s.09.11.13.16c22.59,25.87,26.89,37.33,28.3,41.47a88.19,88.19,0,0,1,4.38,21.19,1.92,1.92,0,0,1-1.55,2.08,66.77,66.77,0,0,1-23.77-1.15C107.29,122.35,90.78,21.32,88.19,2.19Z"/><path class="cls-1" d="M426.12,54.65a2.08,2.08,0,0,0-1.89-2.84c-89.91,3.27-157.08,23.25-176.33,51.38-14.19,20.75-12.52,39-12.52,39,1.36,14.69,9.29,25.45,14.22,31a1.94,1.94,0,0,0,.67.49,2.31,2.31,0,0,0,2-.48c15.31-22.52,31.42-34.23,41.4-40.19,12.17-7.26,29.4-14.46,29.48-14.27,0,0-.13.1-.19.14C290.11,143,282.28,155,279.61,159.3a99.54,99.54,0,0,0-10.28,22.82,2.13,2.13,0,0,0,1.33,2.66A84.41,84.41,0,0,0,299,188.52C374.62,185.26,418.46,75.54,426.12,54.65Z"/></g></g></svg>